<svg version="1.1" x="0px" y="0px" viewBox="0 0 100 125" xmlns="http://www.w3.org/2000/svg">
  <path d="M 18.572266 5 C 14.460508 5 11.072266 8.3882427 11.072266 12.5 L 11.072266 87.5 C 11.072266 91.611758 14.460509 95 18.572266 95 L 81.427734 95 C 85.539491 95 88.927734 91.611758 88.927734 87.5 L 88.927734 12.5 C 88.927734 8.3882421 85.539492 5 81.427734 5 L 18.572266 5 z M 18.572266 10 L 81.427734 10 C 82.855977 10 83.927734 11.071757 83.927734 12.5 L 83.927734 87.5 C 83.927734 88.928244 82.855977 90 81.427734 90 L 18.572266 90 C 17.144023 90 16.072266 88.928244 16.072266 87.5 L 16.072266 12.5 C 16.072266 11.071756 17.144023 10 18.572266 10 z M 50 18.123047 C 46.227693 18.137947 43.184414 21.240331 43.208984 25.050781 C 43.184414 28.899061 46.227693 32.001822 50 31.982422 C 53.771983 32.002122 56.815586 28.899061 56.791016 25.050781 C 56.815586 21.240331 53.771983 18.137907 50 18.123047 z M 42.804688 33.890625 C 38.029255 33.909725 33.819773 41.921765 33.835938 46.828125 L 66.164062 46.828125 C 66.180873 41.921765 61.970421 33.909705 57.195312 33.890625 L 42.804688 33.890625 z M 21.935547 56.654297 L 21.935547 61.595703 L 77.568359 61.595703 L 77.568359 56.654297 L 21.935547 56.654297 z M 21.935547 66.847656 L 21.935547 71.789062 L 77.568359 71.789062 L 77.568359 66.847656 L 21.935547 66.847656 z M 21.935547 77.041016 L 21.935547 81.982422 L 77.568359 81.982422 L 77.568359 77.041016 L 21.935547 77.041016 z "/>
</svg>
